<svg width="24" height="24" viewBox="0 0 24 24" fill="none" xmlns="http://www.w3.org/2000/svg">
<g clip-path="url(#clip0_271_13035)">
<path d="M7.46216 8.09786L7.62216 8.08586C7.68015 8.08047 7.73561 8.06223 7.7833 8.03286L7.78216 8.03386C7.9353 8.49586 8.12273 8.98186 8.35701 9.49086C8.65759 10.1569 8.95358 10.7039 9.28501 11.2319L9.2393 11.1519C9.21187 11.5159 9.17873 11.8899 9.1353 12.2519C9.11586 12.4654 9.06634 12.676 8.98787 12.8789L8.99358 12.8609C8.97987 12.8659 8.96044 14.9409 8.96044 14.9409C8.96127 15.5846 9.20941 16.2094 9.66501 16.7149C10.1206 17.2204 10.7572 17.5771 11.4724 17.7279L11.4953 17.7319C11.5265 17.6593 11.5823 17.5969 11.6553 17.5529C11.7282 17.509 11.8147 17.4856 11.9033 17.4859H12.5593C12.6469 17.4869 12.7322 17.5105 12.8046 17.5537C12.8769 17.5969 12.9331 17.6579 12.9662 17.7289L12.9673 17.7319C13.6885 17.5854 14.3323 17.2305 14.7945 16.7244C15.2568 16.2184 15.5105 15.5907 15.5147 14.9429C15.5147 14.9429 15.4747 12.8759 15.4542 12.8619C15.3849 12.6688 15.3382 12.4701 15.3147 12.2689L15.3136 12.2539C15.2736 11.8899 15.2473 11.5249 15.2096 11.1539C15.4919 10.7079 15.7879 10.1619 16.0484 9.59886L16.0919 9.49286C16.3262 8.98386 16.5079 8.49886 16.6667 8.03586C16.7138 8.06492 16.7684 8.08314 16.8256 8.08886H16.8267L16.9879 8.10086C17.1822 8.11886 17.3536 7.97886 17.3696 7.76186L17.5433 5.83086V5.82886C17.5432 5.75115 17.5108 5.67614 17.4521 5.6178C17.3934 5.55947 17.3125 5.52182 17.2244 5.51186H17.2027C17.3564 4.50638 17.2621 3.48376 16.9262 2.51286L16.941 2.56386C16.6187 1.93758 16.1284 1.38858 15.5118 0.963462C14.8953 0.53834 14.1706 0.24964 13.3993 0.121859L13.3696 0.117859C12.9955 0.0529791 12.6159 0.0155159 12.2347 0.00585938H12.2107C11.8119 0.0121691 11.4147 0.0516806 11.0244 0.123859L11.0656 0.117859C10.2949 0.243452 9.56969 0.528559 8.95059 0.949374C8.33148 1.37019 7.83641 1.9145 7.50673 2.53686L7.49416 2.56386C7.16523 3.53128 7.07754 4.54922 7.23701 5.54886L7.23244 5.51186C7.14413 5.52022 7.06244 5.55677 7.00299 5.61451C6.94353 5.67225 6.91048 5.74714 6.91016 5.82486V5.83186L7.08387 7.76286C7.09987 7.98486 7.27358 8.11886 7.46101 8.10086L7.46216 8.09786Z" fill="white"/>
<path d="M24.4764 20.878C24.3964 17.838 24.0489 17.15 23.8615 16.684C23.7872 16.497 23.7267 15.233 21.3404 14.413C19.8775 13.909 17.9895 13.899 16.3918 13.308V14.952C16.3906 15.7949 16.0542 16.6112 15.4402 17.2608C14.8263 17.9103 13.9732 18.3527 13.0272 18.512L13.0009 18.516C12.9838 18.6047 12.9316 18.6853 12.8535 18.7438C12.7754 18.8023 12.6763 18.8349 12.5735 18.836H12.5529V20.076C12.5529 20.6579 12.8171 21.216 13.2873 21.6274C13.7576 22.0389 14.3954 22.27 15.0604 22.27C15.7254 22.27 16.3632 22.0389 16.8334 21.6274C17.3036 21.216 17.5678 20.6579 17.5678 20.076V19.21C17.2226 19.1657 16.908 19.0123 16.6834 18.7787C16.4588 18.5452 16.3398 18.2477 16.3489 17.9426C16.3581 17.6374 16.4947 17.3458 16.7329 17.1228C16.9712 16.8999 17.2946 16.7611 17.6419 16.7326C17.9892 16.7042 18.3364 16.7882 18.6178 16.9686C18.8992 17.149 19.0952 17.4134 19.1689 17.7118C19.2425 18.0101 19.1886 18.3218 19.0174 18.5877C18.8462 18.8537 18.5696 19.0555 18.2398 19.155L18.2295 19.158V20.123C18.2295 20.8587 17.8955 21.5643 17.301 22.0845C16.7064 22.6048 15.9 22.897 15.0592 22.897C14.2184 22.897 13.412 22.6048 12.8175 22.0845C12.223 21.5643 11.8889 20.8587 11.8889 20.123V20.073V20.075V18.824C11.791 18.8184 11.6982 18.7838 11.6255 18.7261C11.5529 18.6683 11.5047 18.5908 11.4889 18.506V18.504C10.5421 18.346 9.68757 17.9049 9.07166 17.2561C8.45575 16.6074 8.11682 15.7914 8.11294 14.948V13.291C6.50837 13.894 4.60894 13.906 3.13808 14.411C0.74494 15.23 0.690083 16.491 0.616941 16.681C0.434083 17.149 0.0820834 17.834 0.00208344 20.876C-0.0116308 21.276 0.00208351 21.889 1.38037 22.425C4.38151 23.455 8.2478 23.775 12.0592 24.005H12.4249C16.2444 23.777 20.1049 23.458 23.1038 22.425C24.4764 21.892 24.4889 21.282 24.4764 20.878ZM7.69808 19.638H6.27408V20.889H5.25694V19.642H3.83294V18.752H5.25694V17.506H6.27408V18.752H7.69808V19.638Z" fill="white"/>
<path d="M18.5422 17.9645C18.542 17.7861 18.4609 17.614 18.3166 17.4879C18.1723 17.3618 17.9767 17.2909 17.7728 17.291C17.5688 17.2911 17.3733 17.362 17.2291 17.4882C17.0849 17.6144 17.0039 17.7856 17.0039 17.964C17.0039 18.1425 17.0849 18.3136 17.2291 18.4398C17.3733 18.566 17.5688 18.637 17.7728 18.637C17.9767 18.6371 18.1723 18.5663 18.3166 18.4402C18.4609 18.3141 18.542 18.143 18.5422 17.9645Z" fill="white"/>
</g>
<defs>
<clipPath id="clip0_271_13035">
<rect width="24" height="24" fill="white"/>
</clipPath>
</defs>
</svg>
