<svg width="20" height="20" viewBox="0 0 20 20" fill="none" xmlns="http://www.w3.org/2000/svg">
<g clip-path="url(#clip0_271_8256)">
<path d="M0.42666 9.88016C0.426191 11.5606 0.868691 13.2013 1.7101 14.6475L0.346191 19.5888L5.44244 18.2629C6.852 19.0243 8.4313 19.4232 10.0362 19.4233H10.0404C15.3385 19.4233 19.6512 15.1456 19.6535 9.88768C19.6545 7.33985 18.6554 4.94404 16.8403 3.14156C15.0254 1.33923 12.6117 0.346133 10.04 0.344971C4.74135 0.344971 0.428926 4.62249 0.426738 9.88016" fill="url(#paint0_linear_271_8256)"/>
<path d="M0.0835938 9.87721C0.0830469 11.6181 0.541406 13.3175 1.41281 14.8155L0 19.9339L5.27898 18.5605C6.73352 19.3474 8.37117 19.7622 10.0376 19.7629H10.0419C15.53 19.7629 19.9977 15.3312 20 9.88512C20.0009 7.24574 18.9659 4.7638 17.0859 2.89674C15.2057 1.02992 12.7057 0.00108527 10.0419 0C4.55281 0 0.0857813 4.43101 0.0835938 9.87721ZM3.22742 14.5575L3.03031 14.2471C2.20172 12.9398 1.76437 11.4291 1.765 9.87783C1.76672 5.35109 5.47953 1.66822 10.045 1.66822C12.2559 1.66915 14.3337 2.52434 15.8966 4.07597C17.4593 5.62775 18.3192 7.69054 18.3187 9.8845C18.3166 14.4112 14.6037 18.0946 10.0419 18.0946H10.0386C8.5532 18.0938 7.09641 17.698 5.82594 16.95L5.52359 16.7721L2.39094 17.5871L3.22742 14.5575Z" fill="url(#paint1_linear_271_8256)"/>
<path d="M7.55278 5.74801C7.36638 5.33692 7.17021 5.32863 6.99294 5.32142C6.84778 5.31522 6.68185 5.31568 6.51606 5.31568C6.35013 5.31568 6.08052 5.37762 5.85263 5.62452C5.6245 5.87165 4.98169 6.46886 4.98169 7.68351C4.98169 8.89816 5.87333 10.0721 5.99763 10.237C6.12208 10.4016 7.71895 12.974 10.248 13.9636C12.3499 14.786 12.7776 14.6224 13.2338 14.5812C13.69 14.5401 14.706 13.9841 14.9133 13.4076C15.1207 12.8312 15.1207 12.3371 15.0585 12.2338C14.9963 12.131 14.8304 12.0692 14.5815 11.9458C14.3327 11.8223 13.1093 11.225 12.8813 11.1426C12.6532 11.0603 12.4873 11.0192 12.3214 11.2664C12.1554 11.5132 11.679 12.0692 11.5337 12.2338C11.3886 12.3989 11.2434 12.4194 10.9947 12.2959C10.7457 12.172 9.94435 11.9117 8.99364 11.0706C8.25396 10.4162 7.75458 9.60808 7.60942 9.36088C7.46427 9.11405 7.59388 8.98026 7.71864 8.85723C7.83044 8.74661 7.96755 8.56894 8.09208 8.42483C8.21614 8.28064 8.25755 8.17777 8.34052 8.01312C8.42356 7.84832 8.382 7.70413 8.31989 7.58064C8.25755 7.45715 7.77403 6.23615 7.55278 5.74801Z" fill="white"/>
</g>
<defs>
<linearGradient id="paint0_linear_271_8256" x1="965.71" y1="1924.72" x2="965.71" y2="0.344971" gradientUnits="userSpaceOnUse">
<stop stop-color="#1FAF38"/>
<stop offset="1" stop-color="#60D669"/>
</linearGradient>
<linearGradient id="paint1_linear_271_8256" x1="1000" y1="1993.39" x2="1000" y2="0" gradientUnits="userSpaceOnUse">
<stop stop-color="#F9F9F9"/>
<stop offset="1" stop-color="white"/>
</linearGradient>
<clipPath id="clip0_271_8256">
<rect width="20" height="20" fill="white"/>
</clipPath>
</defs>
</svg>
