<svg width="106" height="64" viewBox="0 0 106 64" fill="none" xmlns="http://www.w3.org/2000/svg">
<path d="M86.6813 30.172H80.4173V36.58H74.5853V30.172H68.3213V24.664H74.5853V18.22H80.4173V24.664H86.6813V30.172Z" fill="white"/>
<path d="M67 46H105.5L100.5 52.5L105.5 58H60L67 46Z" fill="#009746"/>
<path d="M79.0024 49.424L76.5704 52.896L76.1944 55H75.4664L75.8424 52.896L74.6264 49.424H75.4424L76.3144 52.232L78.1784 49.424H79.0024ZM81.4583 50.544C81.8263 50.544 82.1436 50.616 82.4103 50.76C82.6823 50.8987 82.8876 51.096 83.0263 51.352C83.1703 51.6027 83.2423 51.8907 83.2423 52.216C83.2423 52.328 83.229 52.464 83.2023 52.624C83.181 52.7627 83.1463 52.9067 83.0983 53.056H79.5943C79.5836 53.1627 79.5783 53.24 79.5783 53.288C79.5783 53.656 79.6876 53.944 79.9063 54.152C80.1303 54.3547 80.421 54.456 80.7783 54.456C81.093 54.456 81.3676 54.384 81.6023 54.24C81.8423 54.0907 82.0236 53.8933 82.1463 53.648H82.9303C82.7383 54.0693 82.4423 54.4133 82.0423 54.68C81.6476 54.9413 81.189 55.072 80.6663 55.072C80.117 55.072 79.6743 54.9147 79.3383 54.6C79.0076 54.28 78.8423 53.8453 78.8423 53.296C78.8423 53.1413 78.8583 52.976 78.8903 52.8C78.9703 52.3467 79.133 51.9493 79.3783 51.608C79.6236 51.2667 79.925 51.0053 80.2823 50.824C80.645 50.6373 81.037 50.544 81.4583 50.544ZM82.4663 52.528C82.4823 52.4213 82.4903 52.3227 82.4903 52.232C82.4903 51.8907 82.381 51.6267 82.1623 51.44C81.949 51.2533 81.669 51.16 81.3223 51.16C80.949 51.16 80.6103 51.2827 80.3063 51.528C80.0023 51.768 79.797 52.1013 79.6903 52.528H82.4663ZM83.8513 52.792C83.9313 52.344 84.0913 51.952 84.3313 51.616C84.5766 51.2747 84.8726 51.0107 85.2193 50.824C85.5713 50.6373 85.9446 50.544 86.3393 50.544C86.7233 50.544 87.0406 50.6267 87.2913 50.792C87.5419 50.9573 87.7153 51.1653 87.8113 51.416L87.9553 50.616H88.6913L87.9153 55H87.1793L87.3313 54.184C87.1393 54.44 86.8859 54.6533 86.5713 54.824C86.2566 54.9893 85.9099 55.072 85.5312 55.072C85.1899 55.072 84.8886 55 84.6273 54.856C84.3659 54.7067 84.1633 54.496 84.0193 54.224C83.8753 53.952 83.8033 53.6373 83.8033 53.28C83.8033 53.12 83.8193 52.9573 83.8513 52.792ZM87.5712 52.8C87.5926 52.688 87.6033 52.568 87.6033 52.44C87.6033 52.0507 87.4859 51.744 87.2513 51.52C87.0219 51.2907 86.7286 51.176 86.3713 51.176C86.0993 51.176 85.8379 51.24 85.5872 51.368C85.3419 51.496 85.1313 51.6827 84.9553 51.928C84.7793 52.1733 84.6619 52.4613 84.6033 52.792C84.5819 52.904 84.5713 53.0267 84.5713 53.16C84.5713 53.5547 84.6859 53.8667 84.9153 54.096C85.1446 54.32 85.4379 54.432 85.7953 54.432C86.0673 54.432 86.3259 54.368 86.5713 54.24C86.8219 54.1067 87.0353 53.9173 87.2113 53.672C87.3926 53.4213 87.5126 53.1307 87.5712 52.8ZM90.5055 51.448C90.6815 51.16 90.9028 50.936 91.1695 50.776C91.4362 50.616 91.7402 50.536 92.0815 50.536L91.9455 51.288H91.7535C91.3748 51.288 91.0575 51.3893 90.8015 51.592C90.5508 51.7947 90.3828 52.136 90.2975 52.616L89.8735 55H89.1455L89.9215 50.616H90.6495L90.5055 51.448ZM93.6739 55.072C93.2152 55.072 92.8392 54.9627 92.5459 54.744C92.2525 54.5253 92.1059 54.232 92.1059 53.864C92.1059 53.7947 92.1085 53.744 92.1139 53.712H92.8259C92.8045 53.9413 92.8712 54.128 93.0259 54.272C93.1859 54.416 93.4152 54.488 93.7139 54.488C94.0125 54.488 94.2525 54.432 94.4339 54.32C94.6205 54.2027 94.7139 54.04 94.7139 53.832C94.7139 53.656 94.6392 53.5173 94.4899 53.416C94.3405 53.3147 94.1112 53.2053 93.8019 53.088C93.5299 52.9867 93.3059 52.8907 93.1299 52.8C92.9539 52.7093 92.8045 52.584 92.6819 52.424C92.5592 52.2587 92.4979 52.0507 92.4979 51.8C92.4979 51.5547 92.5672 51.336 92.7059 51.144C92.8499 50.952 93.0472 50.8053 93.2979 50.704C93.5539 50.5973 93.8445 50.544 94.1699 50.544C94.6179 50.544 94.9859 50.656 95.2739 50.88C95.5619 51.104 95.7059 51.3973 95.7059 51.76C95.7059 51.8293 95.7032 51.8827 95.6979 51.92H95.0019L95.0099 51.824C95.0099 51.6107 94.9272 51.4427 94.7619 51.32C94.6019 51.192 94.3885 51.128 94.1219 51.128C93.8605 51.128 93.6445 51.1867 93.4739 51.304C93.3085 51.4213 93.2259 51.5787 93.2259 51.776C93.2259 51.9627 93.3032 52.1093 93.4579 52.216C93.6125 52.3227 93.8525 52.44 94.1779 52.568C94.4499 52.6747 94.6685 52.7733 94.8339 52.864C94.9992 52.9493 95.1405 53.0693 95.2579 53.224C95.3752 53.3787 95.4339 53.5733 95.4339 53.808C95.4339 54.064 95.3565 54.288 95.2019 54.48C95.0525 54.672 94.8445 54.8187 94.5779 54.92C94.3112 55.0213 94.0099 55.072 93.6739 55.072Z" fill="white"/>
<path d="M4.07812 53.7812C4.5 52.2188 5.21875 50.6719 6.23438 49.1406C7.25 47.6094 8.53125 46.125 10.0781 44.6875C11.625 43.25 13.3984 41.9141 15.3984 40.6797L17.2266 39.5312C19.1328 38.3281 20.5859 36.9766 21.5859 35.4766C22.5859 33.9609 23.0859 32.3672 23.0859 30.6953C23.0859 29.2578 22.7812 28.0156 22.1719 26.9688C21.5781 25.9219 20.7344 25.1172 19.6406 24.5547C18.5469 23.9766 17.2422 23.6875 15.7266 23.6875C12.3828 23.6875 10.1484 24.7422 9.02344 26.8516C10.0078 26.9609 10.8125 27.3438 11.4375 28C12.0625 28.6562 12.375 29.4219 12.375 30.2969C12.375 31.0156 12.2109 31.6562 11.8828 32.2188C11.5703 32.7812 11.1328 33.2266 10.5703 33.5547C10.0234 33.8828 9.39062 34.0469 8.67188 34.0469C8 34.0469 7.38281 33.8594 6.82031 33.4844C6.27344 33.1094 5.82812 32.6172 5.48438 32.0078C5.15625 31.3828 4.99219 30.7031 4.99219 29.9688C4.99219 28.5938 5.30469 27.3359 5.92969 26.1953C6.57031 25.0547 7.46094 24.0625 8.60156 23.2188C9.75781 22.375 11.1094 21.7266 12.6562 21.2734C14.2188 20.8047 15.9297 20.5703 17.7891 20.5703C19.6641 20.5703 21.3203 20.75 22.7578 21.1094C24.2109 21.4688 25.4844 22.0391 26.5781 22.8203C28 23.7734 29.0938 24.9766 29.8594 26.4297C30.625 27.8672 31.0078 29.4141 31.0078 31.0703C31.0078 34.1641 29.7891 36.6484 27.3516 38.5234C26.9297 38.8516 26.4062 39.2031 25.7812 39.5781C25.1719 39.9375 24.4062 40.3438 23.4844 40.7969C22.5781 41.25 21.4688 41.7812 20.1562 42.3906L18.7969 43.0234C16.0469 44.3516 13.8672 45.6562 12.2578 46.9375C10.6641 48.2031 9.5625 49.5078 8.95312 50.8516H24.0938C25.3438 50.8672 26.3516 50.7109 27.1172 50.3828C27.8828 50.0391 28.4688 49.4688 28.875 48.6719C29.2969 47.8594 29.6016 46.7578 29.7891 45.3672H32.1562L30.4219 58H4.07812V53.7812ZM50.1094 37.5625C51.9531 37.5625 53.5312 37.2656 54.8438 36.6719C56.1719 36.0781 57.1875 35.2266 57.8906 34.1172C58.5938 32.9922 58.9453 31.6562 58.9453 30.1094C58.9453 28.8125 58.6172 27.6797 57.9609 26.7109C57.3203 25.7422 56.4141 24.9922 55.2422 24.4609C54.0703 23.9141 52.6953 23.6406 51.1172 23.6406C50.1172 23.6406 49.1641 23.7578 48.2578 23.9922C47.3516 24.2109 46.5703 24.5156 45.9141 24.9062C45.2578 25.2812 44.8047 25.7188 44.5547 26.2188C45.4297 26.4688 46.1172 26.8984 46.6172 27.5078C47.1172 28.1172 47.3672 28.8594 47.3672 29.7344C47.3672 30.3438 47.2188 30.8906 46.9219 31.375C46.6406 31.8594 46.2422 32.2422 45.7266 32.5234C45.2109 32.8047 44.625 32.9453 43.9688 32.9453C43.2812 32.9453 42.6641 32.7969 42.1172 32.5C41.5859 32.1875 41.1641 31.7656 40.8516 31.2344C40.5547 30.7031 40.4062 30.1016 40.4062 29.4297C40.4062 28.2266 40.75 27.0938 41.4375 26.0312C42.125 24.9531 43.0703 24.0078 44.2734 23.1953C45.4922 22.3672 46.8984 21.7266 48.4922 21.2734C50.0859 20.8047 51.7812 20.5703 53.5781 20.5703C55.4375 20.5703 57.1562 20.8125 58.7344 21.2969C60.3281 21.7656 61.7109 22.4297 62.8828 23.2891C64.0703 24.1328 64.9922 25.1328 65.6484 26.2891C66.3047 27.4297 66.6328 28.6719 66.6328 30.0156C66.6328 31.5 66.3359 32.8359 65.7422 34.0234C65.1641 35.2109 64.3203 36.1797 63.2109 36.9297C62.4297 37.4609 61.5938 37.8594 60.7031 38.125C59.8281 38.375 58.7422 38.5547 57.4453 38.6641V38.8516C60.8047 39.2422 63.3828 40.2266 65.1797 41.8047C66.9766 43.3672 67.875 45.4219 67.875 47.9688C67.875 50.25 67.2734 52.2188 66.0703 53.875C64.8828 55.5156 63.1797 56.7734 60.9609 57.6484C58.7422 58.5234 56.0859 58.9609 52.9922 58.9609C51.1016 58.9609 49.3125 58.7266 47.625 58.2578C45.9531 57.8047 44.4766 57.1719 43.1953 56.3594C41.9297 55.5312 40.9297 54.5859 40.1953 53.5234C39.4766 52.4609 39.1172 51.3281 39.1172 50.125C39.1172 49.4219 39.2734 48.7812 39.5859 48.2031C39.8984 47.625 40.3203 47.1719 40.8516 46.8438C41.3984 46.5 42.0078 46.3281 42.6797 46.3281C43.4297 46.3281 44.0938 46.4922 44.6719 46.8203C45.2656 47.1484 45.7266 47.6016 46.0547 48.1797C46.3984 48.7422 46.5703 49.3906 46.5703 50.125C46.5703 50.8906 46.3438 51.5625 45.8906 52.1406C45.4531 52.7031 44.8438 53.1016 44.0625 53.3359C45.625 55.0391 47.9922 55.8906 51.1641 55.8906C52.8828 55.8906 54.375 55.5625 55.6406 54.9062C56.9062 54.25 57.8828 53.3281 58.5703 52.1406C59.2734 50.9531 59.625 49.5625 59.625 47.9688C59.625 46.4375 59.2188 45.1094 58.4062 43.9844C57.6094 42.8594 56.4844 41.9844 55.0312 41.3594C53.5938 40.7344 51.9062 40.4219 49.9688 40.4219H47.4609V37.5625H50.1094Z" fill="white"/>
</svg>
