
<svg width="1440" height="542" viewBox="0 0 1440 542" fill="none" xmlns="http://www.w3.org/2000/svg">
<g opacity="0.018" clip-path="url(#clip0_271_3999)">
<path d="M1423.81 0L1435.7 11.6756L1440 7.42992V0H1423.81Z" fill="#08749B"/>
<path d="M1440 15.8987V15.1083L1439.59 15.4922L1440 15.8987Z" fill="#08749B"/>
<path d="M1382.52 0H1358.75L1370.62 11.6756L1382.52 0Z" fill="#08749B"/>
<path d="M1403.15 43.6084L1431.79 15.4922L1416.01 0H1390.31L1374.53 15.4922L1403.15 43.6084Z" fill="#08749B"/>
<path d="M1407.06 47.425L1435.7 75.5412L1440 71.3181V23.5544L1435.7 19.3313L1407.06 47.425Z" fill="#08749B"/>
<path d="M1440 79.7643V78.9739L1439.59 79.3804L1440 79.7643Z" fill="#08749B"/>
<path d="M1317.44 0H1293.68L1305.57 11.6756L1317.44 0Z" fill="#08749B"/>
<path d="M1338.1 43.6084L1366.73 15.4922L1350.93 0H1325.26L1309.48 15.4922L1338.1 43.6084Z" fill="#08749B"/>
<path d="M1370.63 19.3351L1342 47.4403L1370.63 75.5454L1399.25 47.4402L1370.63 19.3351Z" fill="#08749B"/>
<path d="M1403.16 51.2838L1374.53 79.389L1403.16 107.494L1431.79 79.389L1403.16 51.2838Z" fill="#08749B"/>
<path d="M1407.06 111.313L1435.7 139.407L1440 135.184V87.4427L1435.7 83.197L1407.06 111.313Z" fill="#08749B"/>
<path d="M1440 143.653V142.862L1439.59 143.246L1440 143.653Z" fill="#08749B"/>
<path d="M1252.39 0H1228.62L1240.49 11.6756L1252.39 0Z" fill="#08749B"/>
<path d="M1273.04 43.6084L1301.66 15.4922L1285.88 0H1260.18L1244.4 15.4922L1273.04 43.6084Z" fill="#08749B"/>
<path d="M1305.56 19.3282L1276.93 47.4333L1305.56 75.5385L1334.18 47.4334L1305.56 19.3282Z" fill="#08749B"/>
<path d="M1338.09 51.2771L1309.47 79.3822L1338.09 107.487L1366.72 79.3822L1338.09 51.2771Z" fill="#08749B"/>
<path d="M1370.64 83.2099L1342.01 111.315L1370.64 139.42L1399.26 111.315L1370.64 83.2099Z" fill="#08749B"/>
<path d="M1403.16 115.143L1374.53 143.248L1403.16 171.353L1431.78 143.248L1403.16 115.143Z" fill="#08749B"/>
<path d="M1407.06 175.179L1435.7 203.295L1440 199.072V151.308L1435.7 147.085L1407.06 175.179Z" fill="#08749B"/>
<path d="M1440 207.518V206.728L1439.59 207.134L1440 207.518Z" fill="#08749B"/>
<path d="M1187.33 0H1163.55L1175.44 11.6756L1187.33 0Z" fill="#08749B"/>
<path d="M1207.97 43.6084L1236.61 15.4922L1220.8 0H1195.13L1179.35 15.4922L1207.97 43.6084Z" fill="#08749B"/>
<path d="M1240.51 19.3534L1211.88 47.4586L1240.51 75.5638L1269.14 47.4586L1240.51 19.3534Z" fill="#08749B"/>
<path d="M1273.05 51.2703L1244.42 79.3754L1273.05 107.481L1301.67 79.3754L1273.05 51.2703Z" fill="#08749B"/>
<path d="M1305.57 83.2031L1276.94 111.308L1305.57 139.413L1334.19 111.308L1305.57 83.2031Z" fill="#08749B"/>
<path d="M1338.09 115.136L1309.46 143.241L1338.09 171.346L1366.71 143.241L1338.09 115.136Z" fill="#08749B"/>
<path d="M1370.61 147.069L1341.98 175.174L1370.61 203.279L1399.23 175.174L1370.61 147.069Z" fill="#08749B"/>
<path d="M1403.16 179.04L1374.54 207.145L1403.16 235.25L1431.79 207.145L1403.16 179.04Z" fill="#08749B"/>
<path d="M1407.06 239.067L1435.7 267.161L1440 262.938V215.197L1435.7 210.951L1407.06 239.067Z" fill="#08749B"/>
<path d="M1440 271.407V270.594L1439.59 271L1440 271.407Z" fill="#08749B"/>
<path d="M1122.26 0H1098.49L1110.39 11.6756L1122.26 0Z" fill="#08749B"/>
<path d="M1142.91 43.6084L1171.53 15.4922L1155.75 0H1130.08L1114.27 15.4922L1142.91 43.6084Z" fill="#08749B"/>
<path d="M1175.43 19.3306L1146.8 47.4357L1175.43 75.5408L1204.05 47.4357L1175.43 19.3306Z" fill="#08749B"/>
<path d="M1207.96 51.2794L1179.33 79.3845L1207.96 107.49L1236.59 79.3846L1207.96 51.2794Z" fill="#08749B"/>
<path d="M1240.5 83.2122L1211.88 111.317L1240.5 139.423L1269.13 111.317L1240.5 83.2122Z" fill="#08749B"/>
<path d="M1273.04 115.129L1244.41 143.234L1273.04 171.339L1301.67 143.234L1273.04 115.129Z" fill="#08749B"/>
<path d="M1305.56 147.062L1276.93 175.167L1305.56 203.272L1334.19 175.167L1305.56 147.062Z" fill="#08749B"/>
<path d="M1338.1 179.033L1309.47 207.138L1338.1 235.244L1366.72 207.138L1338.1 179.033Z" fill="#08749B"/>
<path d="M1370.62 210.966L1341.99 239.071L1370.61 267.176L1399.24 239.071L1370.62 210.966Z" fill="#08749B"/>
<path d="M1403.16 242.899L1374.53 271.004L1403.16 299.109L1431.79 271.004L1403.16 242.899Z" fill="#08749B"/>
<path d="M1407.06 302.933L1435.7 331.049L1440 326.803V279.062L1435.7 274.839L1407.06 302.933Z" fill="#08749B"/>
<path d="M1440 335.272V334.482L1439.59 334.866L1440 335.272Z" fill="#08749B"/>
<path d="M1057.2 0H1033.44L1045.31 11.6756L1057.2 0Z" fill="#08749B"/>
<path d="M1077.84 43.6084L1106.48 15.4922L1090.7 0H1065L1049.22 15.4922L1077.84 43.6084Z" fill="#08749B"/>
<path d="M1110.4 19.3397L1081.77 47.4448L1110.4 75.55L1139.02 47.4448L1110.4 19.3397Z" fill="#08749B"/>
<path d="M1142.92 51.2725L1114.29 79.3777L1142.92 107.483L1171.54 79.3777L1142.92 51.2725Z" fill="#08749B"/>
<path d="M1175.44 83.2054L1146.81 111.311L1175.44 139.416L1204.06 111.311L1175.44 83.2054Z" fill="#08749B"/>
<path d="M1207.95 115.138L1179.33 143.243L1207.95 171.349L1236.58 143.243L1207.95 115.138Z" fill="#08749B"/>
<path d="M1240.5 147.071L1211.87 175.176L1240.5 203.281L1269.13 175.176L1240.5 147.071Z" fill="#08749B"/>
<path d="M1273.05 179.026L1244.42 207.132L1273.05 235.237L1301.68 207.132L1273.05 179.026Z" fill="#08749B"/>
<path d="M1305.57 210.959L1276.94 239.064L1305.57 267.17L1334.2 239.065L1305.57 210.959Z" fill="#08749B"/>
<path d="M1338.09 242.892L1309.46 270.997L1338.09 299.102L1366.72 270.997L1338.09 242.892Z" fill="#08749B"/>
<path d="M1370.63 274.848L1342 302.953L1370.63 331.058L1399.26 302.953L1370.63 274.848Z" fill="#08749B"/>
<path d="M1403.15 306.758L1374.52 334.863L1403.15 362.968L1431.78 334.863L1403.15 306.758Z" fill="#08749B"/>
<path d="M1407.06 366.821L1435.7 394.915L1440 390.692V342.928L1435.7 338.705L1407.06 366.821Z" fill="#08749B"/>
<path d="M1440 399.138V398.347L1439.59 398.754L1440 399.138Z" fill="#08749B"/>
<path d="M992.128 0H968.365L980.258 11.6756L992.128 0Z" fill="#08749B"/>
<path d="M1012.78 43.6084L1041.4 15.4922L1025.62 0H999.949L984.146 15.4922L1012.78 43.6084Z" fill="#08749B"/>
<path d="M1045.29 19.333L1016.67 47.4381L1045.29 75.5432L1073.92 47.4381L1045.29 19.333Z" fill="#08749B"/>
<path d="M1077.85 51.2817L1049.23 79.3868L1077.85 107.492L1106.48 79.3869L1077.85 51.2817Z" fill="#08749B"/>
<path d="M1110.39 83.1986L1081.76 111.304L1110.39 139.409L1139.02 111.304L1110.39 83.1986Z" fill="#08749B"/>
<path d="M1142.91 115.131L1114.28 143.237L1142.91 171.342L1171.54 143.237L1142.91 115.131Z" fill="#08749B"/>
<path d="M1175.43 147.064L1146.8 175.169L1175.43 203.275L1204.06 175.169L1175.43 147.064Z" fill="#08749B"/>
<path d="M1207.96 179.036L1179.34 207.141L1207.96 235.246L1236.59 207.141L1207.96 179.036Z" fill="#08749B"/>
<path d="M1240.51 210.968L1211.88 239.074L1240.51 267.179L1269.13 239.074L1240.51 210.968Z" fill="#08749B"/>
<path d="M1273.04 242.885L1244.41 270.99L1273.04 299.096L1301.67 270.991L1273.04 242.885Z" fill="#08749B"/>
<path d="M1305.56 274.818L1276.93 302.923L1305.56 331.028L1334.19 302.923L1305.56 274.818Z" fill="#08749B"/>
<path d="M1338.08 306.774L1309.45 334.879L1338.08 362.984L1366.71 334.879L1338.08 306.774Z" fill="#08749B"/>
<path d="M1370.64 338.722L1342.01 366.828L1370.64 394.933L1399.27 366.827L1370.64 338.722Z" fill="#08749B"/>
<path d="M1403.16 370.655L1374.53 398.76L1403.16 426.865L1431.79 398.76L1403.16 370.655Z" fill="#08749B"/>
<path d="M1407.06 430.687L1435.7 458.803L1440 454.557V406.816L1435.7 402.593L1407.06 430.687Z" fill="#08749B"/>
<path d="M1440 463.026V462.236L1439.59 462.62L1440 463.026Z" fill="#08749B"/>
<path d="M927.075 0H903.312L915.182 11.6756L927.075 0Z" fill="#08749B"/>
<path d="M947.709 43.6084L976.348 15.4922L960.568 0H934.873L919.093 15.4922L947.709 43.6084Z" fill="#08749B"/>
<path d="M980.248 19.3261L951.621 47.4313L980.248 75.5364L1008.88 47.4313L980.248 19.3261Z" fill="#08749B"/>
<path d="M1012.78 51.2749L984.156 79.38L1012.78 107.485L1041.41 79.38L1012.78 51.2749Z" fill="#08749B"/>
<path d="M1045.3 83.2077L1016.68 111.313L1045.3 139.418L1073.93 111.313L1045.3 83.2077Z" fill="#08749B"/>
<path d="M1077.85 115.141L1049.22 143.246L1077.85 171.351L1106.47 143.246L1077.85 115.141Z" fill="#08749B"/>
<path d="M1110.38 147.057L1081.75 175.163L1110.38 203.268L1139.01 175.163L1110.38 147.057Z" fill="#08749B"/>
<path d="M1142.92 179.029L1114.29 207.134L1142.92 235.239L1171.55 207.134L1142.92 179.029Z" fill="#08749B"/>
<path d="M1175.44 210.962L1146.81 239.067L1175.44 267.172L1204.07 239.067L1175.44 210.962Z" fill="#08749B"/>
<path d="M1207.96 242.894L1179.33 271L1207.96 299.105L1236.58 271L1207.96 242.894Z" fill="#08749B"/>
<path d="M1240.48 274.827L1211.85 302.932L1240.48 331.038L1269.1 302.932L1240.48 274.827Z" fill="#08749B"/>
<path d="M1273.04 306.767L1244.41 334.872L1273.04 362.977L1301.66 334.872L1273.04 306.767Z" fill="#08749B"/>
<path d="M1305.57 338.716L1276.94 366.821L1305.57 394.926L1334.2 366.821L1305.57 338.716Z" fill="#08749B"/>
<path d="M1338.09 370.648L1309.46 398.753L1338.09 426.859L1366.72 398.753L1338.09 370.648Z" fill="#08749B"/>
<path d="M1370.63 402.581L1342.01 430.686L1370.63 458.792L1399.26 430.686L1370.63 402.581Z" fill="#08749B"/>
<path d="M1403.15 434.514L1374.53 462.619L1403.15 490.724L1431.78 462.619L1403.15 434.514Z" fill="#08749B"/>
<path d="M1407.06 494.552L1435.7 522.669L1440 518.446V470.682L1435.7 466.459L1407.06 494.552Z" fill="#08749B"/>
<path d="M861.999 0H838.236L850.129 11.6756L861.999 0Z" fill="#08749B"/>
<path d="M882.656 43.6084L911.295 15.4922L895.491 0H869.82L854.04 15.4922L882.656 43.6084Z" fill="#08749B"/>
<path d="M915.186 19.3353L886.558 47.4404L915.186 75.5456L943.813 47.4404L915.186 19.3353Z" fill="#08749B"/>
<path d="M947.722 51.284L919.094 79.3892L947.722 107.494L976.35 79.3891L947.722 51.284Z" fill="#08749B"/>
<path d="M980.258 83.2009L951.63 111.306L980.258 139.411L1008.89 111.306L980.258 83.2009Z" fill="#08749B"/>
<path d="M1012.78 115.134L984.15 143.239L1012.78 171.344L1041.4 143.239L1012.78 115.134Z" fill="#08749B"/>
<path d="M1045.3 147.067L1016.67 175.172L1045.3 203.277L1073.92 175.172L1045.3 147.067Z" fill="#08749B"/>
<path d="M1077.86 179.038L1049.23 207.143L1077.86 235.248L1106.48 207.143L1077.86 179.038Z" fill="#08749B"/>
<path d="M1110.39 210.955L1081.76 239.06L1110.39 267.165L1139.02 239.06L1110.39 210.955Z" fill="#08749B"/>
<path d="M1142.91 242.888L1114.28 270.993L1142.91 299.098L1171.54 270.993L1142.91 242.888Z" fill="#08749B"/>
<path d="M1175.43 274.821L1146.8 302.926L1175.43 331.031L1204.06 302.926L1175.43 274.821Z" fill="#08749B"/>
<path d="M1207.97 306.776L1179.35 334.881L1207.97 362.986L1236.6 334.881L1207.97 306.776Z" fill="#08749B"/>
<path d="M1240.51 338.725L1211.88 366.83L1240.51 394.935L1269.14 366.83L1240.51 338.725Z" fill="#08749B"/>
<path d="M1273.04 370.642L1244.42 398.747L1273.04 426.852L1301.67 398.747L1273.04 370.642Z" fill="#08749B"/>
<path d="M1305.56 402.574L1276.94 430.68L1305.56 458.785L1334.19 430.68L1305.56 402.574Z" fill="#08749B"/>
<path d="M1338.08 434.507L1309.46 462.612L1338.08 490.717L1366.71 462.612L1338.08 434.507Z" fill="#08749B"/>
<path d="M1370.63 466.463L1342 494.568L1370.63 522.673L1399.25 494.568L1370.63 466.463Z" fill="#08749B"/>
<path d="M1403.15 498.392L1374.53 526.508L1390.31 542H1416.01L1431.79 526.508L1403.15 498.392Z" fill="#08749B"/>
<path d="M796.946 0H773.183L785.053 11.6756L796.946 0Z" fill="#08749B"/>
<path d="M817.603 43.6084L846.219 15.4922L830.438 0H804.744L788.964 15.4922L817.603 43.6084Z" fill="#08749B"/>
<path d="M850.133 19.3444L821.505 47.4496L850.133 75.5547L878.761 47.4496L850.133 19.3444Z" fill="#08749B"/>
<path d="M882.653 51.2772L854.025 79.3823L882.653 107.487L911.28 79.3823L882.653 51.2772Z" fill="#08749B"/>
<path d="M915.195 83.21L886.568 111.315L915.195 139.42L943.823 111.315L915.195 83.21Z" fill="#08749B"/>
<path d="M947.715 115.143L919.087 143.248L947.715 171.353L976.342 143.248L947.715 115.143Z" fill="#08749B"/>
<path d="M980.251 147.06L951.623 175.165L980.251 203.27L1008.88 175.165L980.251 147.06Z" fill="#08749B"/>
<path d="M1012.79 179.031L984.159 207.136L1012.79 235.241L1041.41 207.136L1012.79 179.031Z" fill="#08749B"/>
<path d="M1045.33 210.964L1016.7 239.069L1045.33 267.174L1073.96 239.069L1045.33 210.964Z" fill="#08749B"/>
<path d="M1077.85 242.897L1049.22 271.002L1077.85 299.107L1106.48 271.002L1077.85 242.897Z" fill="#08749B"/>
<path d="M1110.38 274.814L1081.76 302.919L1110.38 331.024L1139.01 302.919L1110.38 274.814Z" fill="#08749B"/>
<path d="M1142.9 306.769L1114.28 334.874L1142.9 362.979L1171.53 334.874L1142.9 306.769Z" fill="#08749B"/>
<path d="M1175.44 338.718L1146.81 366.823L1175.44 394.928L1204.07 366.823L1175.44 338.718Z" fill="#08749B"/>
<path d="M1207.98 370.651L1179.35 398.756L1207.98 426.861L1236.61 398.756L1207.98 370.651Z" fill="#08749B"/>
<path d="M1240.5 402.584L1211.87 430.689L1240.5 458.794L1269.13 430.689L1240.5 402.584Z" fill="#08749B"/>
<path d="M1273.04 434.5L1244.41 462.606L1273.04 490.711L1301.67 462.606L1273.04 434.5Z" fill="#08749B"/>
<path d="M1305.56 466.456L1276.93 494.561L1305.56 522.666L1334.18 494.561L1305.56 466.456Z" fill="#08749B"/>
<path d="M1338.1 498.392L1309.48 526.508L1325.26 542H1350.93L1366.73 526.508L1338.1 498.392Z" fill="#08749B"/>
<path d="M731.893 0H708.107L720 11.6756L731.893 0Z" fill="#08749B"/>
<path d="M752.527 43.6084L781.166 15.4922L765.362 0H739.691L723.911 15.4922L752.527 43.6084Z" fill="#08749B"/>
<path d="M785.054 19.3375L756.427 47.4426L785.054 75.5478L813.682 47.4427L785.054 19.3375Z" fill="#08749B"/>
<path d="M817.607 51.2703L788.979 79.3755L817.607 107.481L846.234 79.3755L817.607 51.2703Z" fill="#08749B"/>
<path d="M850.126 83.2032L821.499 111.308L850.126 139.413L878.754 111.308L850.126 83.2032Z" fill="#08749B"/>
<path d="M882.646 115.136L854.018 143.241L882.646 171.346L911.273 143.241L882.646 115.136Z" fill="#08749B"/>
<path d="M915.165 147.069L886.538 175.174L915.165 203.279L943.793 175.174L915.165 147.069Z" fill="#08749B"/>
<path d="M947.724 179.04L919.096 207.145L947.724 235.251L976.352 207.145L947.724 179.04Z" fill="#08749B"/>
<path d="M980.26 210.957L951.632 239.062L980.26 267.167L1008.89 239.062L980.26 210.957Z" fill="#08749B"/>
<path d="M1012.78 242.89L984.152 270.995L1012.78 299.1L1041.41 270.995L1012.78 242.89Z" fill="#08749B"/>
<path d="M1045.3 274.823L1016.67 302.928L1045.3 331.033L1073.93 302.928L1045.3 274.823Z" fill="#08749B"/>
<path d="M1077.84 306.778L1049.21 334.883L1077.84 362.988L1106.47 334.883L1077.84 306.778Z" fill="#08749B"/>
<path d="M1110.39 338.711L1081.77 366.816L1110.39 394.921L1139.02 366.816L1110.39 338.711Z" fill="#08749B"/>
<path d="M1142.91 370.644L1114.29 398.749L1142.91 426.854L1171.54 398.749L1142.91 370.644Z" fill="#08749B"/>
<path d="M1175.43 402.577L1146.81 430.682L1175.43 458.787L1204.06 430.682L1175.43 402.577Z" fill="#08749B"/>
<path d="M1207.95 434.51L1179.32 462.615L1207.95 490.72L1236.58 462.615L1207.95 434.51Z" fill="#08749B"/>
<path d="M1240.49 466.465L1211.87 494.57L1240.49 522.675L1269.12 494.57L1240.49 466.465Z" fill="#08749B"/>
<path d="M1273.04 498.392L1244.4 526.508L1260.18 542H1285.88L1301.66 526.508L1273.04 498.392Z" fill="#08749B"/>
<path d="M666.817 0H643.054L654.947 11.6756L666.817 0Z" fill="#08749B"/>
<path d="M687.473 43.6084L716.089 15.4922L700.309 0H674.638L658.834 15.4922L687.473 43.6084Z" fill="#08749B"/>
<path d="M719.986 19.3308L691.358 47.4359L719.986 75.5411L748.613 47.436L719.986 19.3308Z" fill="#08749B"/>
<path d="M752.544 51.2795L723.917 79.3846L752.544 107.49L781.172 79.3846L752.544 51.2795Z" fill="#08749B"/>
<path d="M785.064 83.2124L756.436 111.318L785.064 139.423L813.692 111.318L785.064 83.2124Z" fill="#08749B"/>
<path d="M817.6 115.129L788.972 143.234L817.6 171.34L846.227 143.234L817.6 115.129Z" fill="#08749B"/>
<path d="M850.119 147.062L821.491 175.167L850.119 203.272L878.747 175.167L850.119 147.062Z" fill="#08749B"/>
<path d="M882.655 179.033L854.027 207.139L882.655 235.244L911.283 207.139L882.655 179.033Z" fill="#08749B"/>
<path d="M915.198 210.966L886.57 239.071L915.198 267.177L943.825 239.071L915.198 210.966Z" fill="#08749B"/>
<path d="M947.717 242.899L919.09 271.004L947.717 299.109L976.345 271.004L947.717 242.899Z" fill="#08749B"/>
<path d="M980.253 274.816L951.625 302.921L980.253 331.026L1008.88 302.921L980.253 274.816Z" fill="#08749B"/>
<path d="M1012.77 306.771L984.145 334.876L1012.77 362.982L1041.4 334.877L1012.77 306.771Z" fill="#08749B"/>
<path d="M1045.31 338.72L1016.68 366.825L1045.31 394.931L1073.94 366.825L1045.31 338.72Z" fill="#08749B"/>
<path d="M1077.85 370.653L1049.22 398.758L1077.85 426.863L1106.48 398.758L1077.85 370.653Z" fill="#08749B"/>
<path d="M1110.39 402.57L1081.76 430.675L1110.39 458.78L1139.01 430.675L1110.39 402.57Z" fill="#08749B"/>
<path d="M1142.91 434.503L1114.28 462.608L1142.91 490.713L1171.53 462.608L1142.91 434.503Z" fill="#08749B"/>
<path d="M1175.43 466.458L1146.8 494.563L1175.43 522.668L1204.05 494.563L1175.43 466.458Z" fill="#08749B"/>
<path d="M1207.97 498.392L1179.35 526.508L1195.13 542H1220.8L1236.61 526.508L1207.97 498.392Z" fill="#08749B"/>
<path d="M601.764 0H578.001L589.871 11.6756L601.764 0Z" fill="#08749B"/>
<path d="M622.397 43.6084L651.036 15.4922L635.256 0H609.561L593.781 15.4922L622.397 43.6084Z" fill="#08749B"/>
<path d="M654.939 19.324L626.312 47.4291L654.939 75.5342L683.567 47.4291L654.939 19.324Z" fill="#08749B"/>
<path d="M687.475 51.2728L658.848 79.3779L687.475 107.483L716.103 79.3779L687.475 51.2728Z" fill="#08749B"/>
<path d="M719.995 83.2056L691.367 111.311L719.995 139.416L748.622 111.311L719.995 83.2056Z" fill="#08749B"/>
<path d="M752.537 115.138L723.91 143.244L752.537 171.349L781.165 143.244L752.537 115.138Z" fill="#08749B"/>
<path d="M785.057 147.071L756.429 175.176L785.057 203.282L813.684 175.176L785.057 147.071Z" fill="#08749B"/>
<path d="M817.609 179.027L788.981 207.132L817.609 235.237L846.237 207.132L817.609 179.027Z" fill="#08749B"/>
<path d="M850.129 210.96L821.501 239.065L850.129 267.17L878.756 239.065L850.129 210.96Z" fill="#08749B"/>
<path d="M882.648 242.892L854.021 270.997L882.648 299.103L911.276 270.997L882.648 242.892Z" fill="#08749B"/>
<path d="M915.168 274.825L886.54 302.93L915.168 331.035L943.795 302.93L915.168 274.825Z" fill="#08749B"/>
<path d="M947.71 306.781L919.083 334.886L947.71 362.991L976.338 334.886L947.71 306.781Z" fill="#08749B"/>
<path d="M980.262 338.713L951.635 366.819L980.262 394.924L1008.89 366.819L980.262 338.713Z" fill="#08749B"/>
<path d="M1012.78 370.646L984.154 398.751L1012.78 426.856L1041.41 398.751L1012.78 370.646Z" fill="#08749B"/>
<path d="M1045.3 402.579L1016.67 430.684L1045.3 458.789L1073.93 430.684L1045.3 402.579Z" fill="#08749B"/>
<path d="M1077.84 434.512L1049.22 462.617L1077.84 490.722L1106.47 462.617L1077.84 434.512Z" fill="#08749B"/>
<path d="M1110.38 466.451L1081.75 494.557L1110.38 522.662L1139.01 494.556L1110.38 466.451Z" fill="#08749B"/>
<path d="M1142.91 498.392L1114.27 526.508L1130.08 542H1155.75L1171.53 526.508L1142.91 498.392Z" fill="#08749B"/>
<path d="M536.688 0H512.925L524.818 11.6756L536.688 0Z" fill="#08749B"/>
<path d="M557.345 43.6084L585.961 15.4922L570.18 0H544.509L528.706 15.4922L557.345 43.6084Z" fill="#08749B"/>
<path d="M589.87 19.3491L561.243 47.4542L589.87 75.5594L618.498 47.4542L589.87 19.3491Z" fill="#08749B"/>
<path d="M622.413 51.2819L593.785 79.3871L622.413 107.492L651.04 79.3871L622.413 51.2819Z" fill="#08749B"/>
<path d="M654.949 83.1987L626.321 111.304L654.949 139.409L683.577 111.304L654.949 83.1987Z" fill="#08749B"/>
<path d="M687.468 115.132L658.841 143.237L687.468 171.342L716.096 143.237L687.468 115.132Z" fill="#08749B"/>
<path d="M719.988 147.064L691.36 175.17L719.988 203.275L748.615 175.17L719.988 147.064Z" fill="#08749B"/>
<path d="M752.524 179.036L723.896 207.141L752.524 235.246L781.151 207.141L752.524 179.036Z" fill="#08749B"/>
<path d="M785.066 210.969L756.438 239.074L785.066 267.179L813.694 239.074L785.066 210.969Z" fill="#08749B"/>
<path d="M817.602 242.885L788.974 270.991L817.602 299.096L846.23 270.991L817.602 242.885Z" fill="#08749B"/>
<path d="M850.122 274.818L821.494 302.923L850.122 331.029L878.749 302.923L850.122 274.818Z" fill="#08749B"/>
<path d="M882.641 306.774L854.014 334.879L882.641 362.984L911.269 334.879L882.641 306.774Z" fill="#08749B"/>
<path d="M915.2 338.722L886.572 366.828L915.2 394.933L943.828 366.828L915.2 338.722Z" fill="#08749B"/>
<path d="M947.719 370.655L919.092 398.76L947.719 426.866L976.347 398.76L947.719 370.655Z" fill="#08749B"/>
<path d="M980.255 402.572L951.628 430.677L980.255 458.782L1008.88 430.677L980.255 402.572Z" fill="#08749B"/>
<path d="M1012.78 434.505L984.147 462.61L1012.78 490.715L1041.4 462.61L1012.78 434.505Z" fill="#08749B"/>
<path d="M1045.29 466.461L1016.67 494.566L1045.29 522.671L1073.92 494.566L1045.29 466.461Z" fill="#08749B"/>
<path d="M1077.84 498.392L1049.22 526.508L1065 542H1090.7L1106.48 526.508L1077.84 498.392Z" fill="#08749B"/>
<path d="M471.634 0H447.872L459.742 11.6756L471.634 0Z" fill="#08749B"/>
<path d="M492.291 43.6084L520.907 15.4922L505.127 0H479.433L463.652 15.4922L492.291 43.6084Z" fill="#08749B"/>
<path d="M524.808 19.3263L496.18 47.4314L524.808 75.5365L553.435 47.4314L524.808 19.3263Z" fill="#08749B"/>
<path d="M557.343 51.275L528.716 79.3801L557.343 107.485L585.971 79.3801L557.343 51.275Z" fill="#08749B"/>
<path d="M589.864 83.2078L561.236 111.313L589.863 139.418L618.491 111.313L589.864 83.2078Z" fill="#08749B"/>
<path d="M622.406 115.141L593.778 143.246L622.406 171.351L651.034 143.246L622.406 115.141Z" fill="#08749B"/>
<path d="M654.942 147.058L626.314 175.163L654.942 203.268L683.569 175.163L654.942 147.058Z" fill="#08749B"/>
<path d="M687.478 179.029L658.85 207.134L687.478 235.239L716.105 207.134L687.478 179.029Z" fill="#08749B"/>
<path d="M719.997 210.962L691.37 239.067L719.997 267.172L748.625 239.067L719.997 210.962Z" fill="#08749B"/>
<path d="M752.517 242.895L723.889 271L752.517 299.105L781.144 271L752.517 242.895Z" fill="#08749B"/>
<path d="M785.059 274.828L756.432 302.933L785.059 331.038L813.687 302.933L785.059 274.828Z" fill="#08749B"/>
<path d="M817.595 306.767L788.968 334.872L817.595 362.977L846.223 334.872L817.595 306.767Z" fill="#08749B"/>
<path d="M850.131 338.716L821.503 366.821L850.131 394.926L878.759 366.821L850.131 338.716Z" fill="#08749B"/>
<path d="M882.651 370.649L854.023 398.754L882.651 426.859L911.278 398.754L882.651 370.649Z" fill="#08749B"/>
<path d="M915.193 402.581L886.565 430.687L915.193 458.792L943.821 430.686L915.193 402.581Z" fill="#08749B"/>
<path d="M947.713 434.514L919.085 462.619L947.713 490.725L976.34 462.619L947.713 434.514Z" fill="#08749B"/>
<path d="M980.249 466.454L951.621 494.559L980.248 522.664L1008.88 494.559L980.249 466.454Z" fill="#08749B"/>
<path d="M1012.78 498.392L984.146 526.508L999.949 542H1025.62L1041.4 526.508L1012.78 498.392Z" fill="#08749B"/>
<path d="M406.559 0H382.796L394.689 11.6756L406.559 0Z" fill="#08749B"/>
<path d="M427.215 43.6084L455.854 15.4922L440.051 0H414.379L398.599 15.4922L427.215 43.6084Z" fill="#08749B"/>
<path d="M459.745 19.3354L431.118 47.4406L459.745 75.5457L488.373 47.4405L459.745 19.3354Z" fill="#08749B"/>
<path d="M492.298 51.2683L463.67 79.3734L492.298 107.479L520.925 79.3734L492.298 51.2683Z" fill="#08749B"/>
<path d="M524.817 83.201L496.189 111.306L524.817 139.411L553.445 111.306L524.817 83.201Z" fill="#08749B"/>
<path d="M557.337 115.134L528.709 143.239L557.337 171.344L585.964 143.239L557.337 115.134Z" fill="#08749B"/>
<path d="M589.856 147.067L561.229 175.172L589.856 203.277L618.484 175.172L589.856 147.067Z" fill="#08749B"/>
<path d="M622.415 179.038L593.788 207.143L622.415 235.248L651.043 207.143L622.415 179.038Z" fill="#08749B"/>
<path d="M654.951 210.955L626.323 239.06L654.951 267.165L683.579 239.06L654.951 210.955Z" fill="#08749B"/>
<path d="M687.471 242.888L658.843 270.993L687.471 299.098L716.098 270.993L687.471 242.888Z" fill="#08749B"/>
<path d="M719.99 274.821L691.363 302.926L719.99 331.031L748.618 302.926L719.99 274.821Z" fill="#08749B"/>
<path d="M752.51 306.776L723.882 334.881L752.51 362.986L781.137 334.881L752.51 306.776Z" fill="#08749B"/>
<path d="M785.069 338.725L756.441 366.83L785.069 394.935L813.696 366.83L785.069 338.725Z" fill="#08749B"/>
<path d="M817.604 370.642L788.977 398.747L817.604 426.852L846.232 398.747L817.604 370.642Z" fill="#08749B"/>
<path d="M850.124 402.575L821.496 430.68L850.124 458.785L878.752 430.68L850.124 402.575Z" fill="#08749B"/>
<path d="M882.644 434.507L854.016 462.613L882.644 490.718L911.271 462.613L882.644 434.507Z" fill="#08749B"/>
<path d="M915.186 466.463L886.558 494.568L915.186 522.673L943.814 494.568L915.186 466.463Z" fill="#08749B"/>
<path d="M947.709 498.392L919.093 526.508L934.873 542H960.568L976.348 526.508L947.709 498.392Z" fill="#08749B"/>
<path d="M341.505 0H317.743L329.613 11.6756L341.505 0Z" fill="#08749B"/>
<path d="M362.162 43.6084L390.778 15.4922L374.998 0H349.304L333.523 15.4922L362.162 43.6084Z" fill="#08749B"/>
<path d="M394.676 19.3286L366.049 47.4337L394.676 75.5389L423.304 47.4337L394.676 19.3286Z" fill="#08749B"/>
<path d="M427.212 51.2774L398.584 79.3826L427.212 107.488L455.84 79.3826L427.212 51.2774Z" fill="#08749B"/>
<path d="M459.755 83.2103L431.127 111.315L459.755 139.421L488.383 111.315L459.755 83.2103Z" fill="#08749B"/>
<path d="M492.291 115.127L463.663 143.232L492.291 171.337L520.918 143.232L492.291 115.127Z" fill="#08749B"/>
<path d="M524.81 147.06L496.183 175.165L524.81 203.27L553.438 175.165L524.81 147.06Z" fill="#08749B"/>
<path d="M557.346 179.031L528.718 207.136L557.346 235.242L585.974 207.136L557.346 179.031Z" fill="#08749B"/>
<path d="M589.865 210.964L561.238 239.069L589.865 267.174L618.493 239.069L589.865 210.964Z" fill="#08749B"/>
<path d="M622.408 242.897L593.781 271.002L622.408 299.107L651.036 271.002L622.408 242.897Z" fill="#08749B"/>
<path d="M654.944 274.814L626.316 302.919L654.944 331.024L683.572 302.919L654.944 274.814Z" fill="#08749B"/>
<path d="M687.464 306.769L658.836 334.874L687.464 362.98L716.091 334.874L687.464 306.769Z" fill="#08749B"/>
<path d="M719.999 338.718L691.372 366.823L719.999 394.928L748.627 366.823L719.999 338.718Z" fill="#08749B"/>
<path d="M752.519 370.651L723.891 398.756L752.519 426.861L781.147 398.756L752.519 370.651Z" fill="#08749B"/>
<path d="M785.062 402.584L756.434 430.689L785.062 458.794L813.689 430.689L785.062 402.584Z" fill="#08749B"/>
<path d="M817.597 434.501L788.97 462.606L817.597 490.711L846.225 462.606L817.597 434.501Z" fill="#08749B"/>
<path d="M850.117 466.456L821.489 494.561L850.117 522.666L878.745 494.561L850.117 466.456Z" fill="#08749B"/>
<path d="M882.656 498.392L854.04 526.508L869.82 542H895.491L911.295 526.508L882.656 498.392Z" fill="#08749B"/>
<path d="M276.452 0H252.667L264.56 11.6756L276.452 0Z" fill="#08749B"/>
<path d="M297.086 43.6084L325.725 15.4922L309.922 0H284.25L268.47 15.4922L297.086 43.6084Z" fill="#08749B"/>
<path d="M329.631 19.3537L301.003 47.4589L329.631 75.564L358.258 47.4589L329.631 19.3537Z" fill="#08749B"/>
<path d="M362.166 51.2706L333.539 79.3757L362.166 107.481L390.794 79.3757L362.166 51.2706Z" fill="#08749B"/>
<path d="M394.686 83.2034L366.058 111.309L394.686 139.414L423.313 111.309L394.686 83.2034Z" fill="#08749B"/>
<path d="M427.205 115.136L398.578 143.241L427.205 171.346L455.833 143.241L427.205 115.136Z" fill="#08749B"/>
<path d="M459.748 147.069L431.12 175.174L459.748 203.279L488.375 175.174L459.748 147.069Z" fill="#08749B"/>
<path d="M492.3 179.025L463.672 207.13L492.3 235.235L520.928 207.13L492.3 179.025Z" fill="#08749B"/>
<path d="M524.82 210.957L496.192 239.062L524.82 267.168L553.447 239.062L524.82 210.957Z" fill="#08749B"/>
<path d="M557.339 242.89L528.711 270.995L557.339 299.1L585.967 270.995L557.339 242.89Z" fill="#08749B"/>
<path d="M589.859 274.823L561.231 302.928L589.859 331.033L618.486 302.928L589.859 274.823Z" fill="#08749B"/>
<path d="M622.401 306.778L593.773 334.884L622.401 362.989L651.029 334.884L622.401 306.778Z" fill="#08749B"/>
<path d="M654.953 338.711L626.326 366.816L654.953 394.922L683.581 366.816L654.953 338.711Z" fill="#08749B"/>
<path d="M687.473 370.644L658.845 398.749L687.473 426.854L716.101 398.749L687.473 370.644Z" fill="#08749B"/>
<path d="M719.993 402.577L691.365 430.682L719.993 458.787L748.62 430.682L719.993 402.577Z" fill="#08749B"/>
<path d="M752.512 434.51L723.885 462.615L752.512 490.72L781.14 462.615L752.512 434.51Z" fill="#08749B"/>
<path d="M785.055 466.465L756.427 494.57L785.055 522.675L813.682 494.57L785.055 466.465Z" fill="#08749B"/>
<path d="M817.603 498.392L788.964 526.508L804.744 542H830.438L846.219 526.508L817.603 498.392Z" fill="#08749B"/>
<path d="M211.377 0H187.614L199.507 11.6756L211.377 0Z" fill="#08749B"/>
<path d="M232.033 43.6084L260.649 15.4922L244.869 0H219.197L203.394 15.4922L232.033 43.6084Z" fill="#08749B"/>
<path d="M264.561 19.3469L235.934 47.452L264.561 75.5572L293.189 47.452L264.561 19.3469Z" fill="#08749B"/>
<path d="M297.104 51.2798L268.476 79.3849L297.104 107.49L325.731 79.3849L297.104 51.2798Z" fill="#08749B"/>
<path d="M329.623 83.2125L300.996 111.318L329.623 139.423L358.251 111.318L329.623 83.2125Z" fill="#08749B"/>
<path d="M362.159 115.129L333.532 143.234L362.159 171.34L390.787 143.234L362.159 115.129Z" fill="#08749B"/>
<path d="M394.679 147.062L366.051 175.167L394.679 203.273L423.307 175.167L394.679 147.062Z" fill="#08749B"/>
<path d="M427.215 179.034L398.587 207.139L427.215 235.244L455.842 207.139L427.215 179.034Z" fill="#08749B"/>
<path d="M459.757 210.966L431.129 239.072L459.757 267.177L488.385 239.072L459.757 210.966Z" fill="#08749B"/>
<path d="M492.293 242.883L463.666 270.989L492.293 299.094L520.921 270.989L492.293 242.883Z" fill="#08749B"/>
<path d="M524.813 274.816L496.185 302.921L524.813 331.026L553.44 302.921L524.813 274.816Z" fill="#08749B"/>
<path d="M557.332 306.772L528.705 334.877L557.332 362.982L585.96 334.877L557.332 306.772Z" fill="#08749B"/>
<path d="M589.868 338.72L561.24 366.825L589.868 394.931L618.496 366.825L589.868 338.72Z" fill="#08749B"/>
<path d="M622.411 370.653L593.783 398.758L622.411 426.864L651.039 398.758L622.411 370.653Z" fill="#08749B"/>
<path d="M654.946 402.57L626.319 430.675L654.946 458.78L683.574 430.675L654.946 402.57Z" fill="#08749B"/>
<path d="M687.466 434.503L658.838 462.608L687.466 490.713L716.094 462.608L687.466 434.503Z" fill="#08749B"/>
<path d="M719.986 466.458L691.358 494.563L719.986 522.669L748.613 494.564L719.986 466.458Z" fill="#08749B"/>
<path d="M752.527 498.392L723.911 526.508L739.691 542H765.362L781.166 526.508L752.527 498.392Z" fill="#08749B"/>
<path d="M146.323 0H122.561L134.431 11.6756L146.323 0Z" fill="#08749B"/>
<path d="M166.957 43.6084L195.596 15.4922L179.816 0H154.122L138.341 15.4922L166.957 43.6084Z" fill="#08749B"/>
<path d="M199.515 19.3401L170.888 47.4452L199.515 75.5503L228.143 47.4452L199.515 19.3401Z" fill="#08749B"/>
<path d="M232.035 51.2729L203.407 79.3781L232.035 107.483L260.663 79.3781L232.035 51.2729Z" fill="#08749B"/>
<path d="M264.554 83.2058L235.927 111.311L264.554 139.416L293.182 111.311L264.554 83.2058Z" fill="#08749B"/>
<path d="M297.097 115.139L268.469 143.244L297.097 171.349L325.725 143.244L297.097 115.139Z" fill="#08749B"/>
<path d="M329.616 147.071L300.989 175.177L329.616 203.282L358.244 175.177L329.616 147.071Z" fill="#08749B"/>
<path d="M362.169 179.027L333.541 207.132L362.169 235.237L390.796 207.132L362.169 179.027Z" fill="#08749B"/>
<path d="M394.688 210.96L366.061 239.065L394.688 267.17L423.316 239.065L394.688 210.96Z" fill="#08749B"/>
<path d="M427.208 242.892L398.58 270.998L427.208 299.103L455.835 270.998L427.208 242.892Z" fill="#08749B"/>
<path d="M459.75 274.825L431.123 302.93L459.75 331.036L488.378 302.93L459.75 274.825Z" fill="#08749B"/>
<path d="M492.286 306.765L463.659 334.87L492.286 362.975L520.914 334.87L492.286 306.765Z" fill="#08749B"/>
<path d="M524.822 338.714L496.194 366.819L524.822 394.924L553.45 366.819L524.822 338.714Z" fill="#08749B"/>
<path d="M557.342 370.646L528.714 398.751L557.342 426.857L585.969 398.751L557.342 370.646Z" fill="#08749B"/>
<path d="M589.861 402.579L561.233 430.684L589.861 458.789L618.489 430.684L589.861 402.579Z" fill="#08749B"/>
<path d="M622.404 434.512L593.776 462.617L622.404 490.722L651.031 462.617L622.404 434.512Z" fill="#08749B"/>
<path d="M654.94 466.452L626.312 494.557L654.94 522.662L683.567 494.557L654.94 466.452Z" fill="#08749B"/>
<path d="M687.473 498.392L658.834 526.508L674.638 542H700.309L716.089 526.508L687.473 498.392Z" fill="#08749B"/>
<path d="M81.2472 0H57.4849L69.3775 11.6756L81.2472 0Z" fill="#08749B"/>
<path d="M101.904 43.6084L130.52 15.4922L114.74 0H89.0683L73.2651 15.4922L101.904 43.6084Z" fill="#08749B"/>
<path d="M134.414 19.3332L105.786 47.4384L134.414 75.5435L163.041 47.4384L134.414 19.3332Z" fill="#08749B"/>
<path d="M166.972 51.2821L138.345 79.3872L166.972 107.492L195.6 79.3872L166.972 51.2821Z" fill="#08749B"/>
<path d="M199.508 83.1989L170.88 111.304L199.508 139.409L228.136 111.304L199.508 83.1989Z" fill="#08749B"/>
<path d="M232.028 115.132L203.4 143.237L232.028 171.342L260.656 143.237L232.028 115.132Z" fill="#08749B"/>
<path d="M264.548 147.065L235.92 175.17L264.548 203.275L293.175 175.17L264.548 147.065Z" fill="#08749B"/>
<path d="M297.083 179.036L268.456 207.141L297.083 235.246L325.711 207.141L297.083 179.036Z" fill="#08749B"/>
<path d="M329.626 210.969L300.998 239.074L329.626 267.179L358.253 239.074L329.626 210.969Z" fill="#08749B"/>
<path d="M362.162 242.886L333.534 270.991L362.162 299.096L390.79 270.991L362.162 242.886Z" fill="#08749B"/>
<path d="M394.681 274.818L366.054 302.924L394.681 331.029L423.309 302.924L394.681 274.818Z" fill="#08749B"/>
<path d="M427.201 306.774L398.573 334.879L427.201 362.984L455.829 334.879L427.201 306.774Z" fill="#08749B"/>
<path d="M459.76 338.723L431.132 366.828L459.759 394.933L488.387 366.828L459.76 338.723Z" fill="#08749B"/>
<path d="M492.296 370.64L463.668 398.745L492.296 426.85L520.923 398.745L492.296 370.64Z" fill="#08749B"/>
<path d="M524.815 402.572L496.188 430.677L524.815 458.783L553.443 430.677L524.815 402.572Z" fill="#08749B"/>
<path d="M557.335 434.505L528.707 462.61L557.335 490.715L585.962 462.61L557.335 434.505Z" fill="#08749B"/>
<path d="M589.854 466.461L561.227 494.566L589.854 522.671L618.482 494.566L589.854 466.461Z" fill="#08749B"/>
<path d="M622.397 498.392L593.781 526.508L609.561 542H635.256L651.036 526.508L622.397 498.392Z" fill="#08749B"/>
<path d="M16.1942 0H0V7.42992L4.3016 11.6756L16.1942 0Z" fill="#08749B"/>
<path d="M36.8509 43.6084L65.4669 15.4922L49.6867 0H23.9921L8.21191 15.4922L36.8509 43.6084Z" fill="#08749B"/>
<path d="M69.3674 19.3264L40.7397 47.4315L69.3674 75.5367L97.9951 47.4315L69.3674 19.3264Z" fill="#08749B"/>
<path d="M101.904 51.2752L73.2759 79.3804L101.904 107.486L130.531 79.3804L101.904 51.2752Z" fill="#08749B"/>
<path d="M134.423 83.2081L105.795 111.313L134.423 139.418L163.051 111.313L134.423 83.2081Z" fill="#08749B"/>
<path d="M166.966 115.141L138.338 143.246L166.966 171.351L195.593 143.246L166.966 115.141Z" fill="#08749B"/>
<path d="M199.501 147.058L170.874 175.163L199.501 203.268L228.129 175.163L199.501 147.058Z" fill="#08749B"/>
<path d="M232.037 179.029L203.41 207.134L232.037 235.239L260.665 207.134L232.037 179.029Z" fill="#08749B"/>
<path d="M264.557 210.962L235.929 239.067L264.557 267.172L293.185 239.067L264.557 210.962Z" fill="#08749B"/>
<path d="M297.076 242.895L268.449 271L297.076 299.105L325.704 271L297.076 242.895Z" fill="#08749B"/>
<path d="M329.619 274.828L300.991 302.933L329.619 331.038L358.247 302.933L329.619 274.828Z" fill="#08749B"/>
<path d="M362.155 306.767L333.527 334.872L362.155 362.977L390.782 334.872L362.155 306.767Z" fill="#08749B"/>
<path d="M394.691 338.716L366.063 366.821L394.691 394.926L423.318 366.821L394.691 338.716Z" fill="#08749B"/>
<path d="M427.21 370.649L398.583 398.754L427.21 426.859L455.838 398.754L427.21 370.649Z" fill="#08749B"/>
<path d="M459.753 402.582L431.125 430.687L459.753 458.792L488.38 430.687L459.753 402.582Z" fill="#08749B"/>
<path d="M492.288 434.498L463.661 462.604L492.288 490.709L520.916 462.604L492.288 434.498Z" fill="#08749B"/>
<path d="M524.808 466.454L496.181 494.559L524.808 522.664L553.436 494.559L524.808 466.454Z" fill="#08749B"/>
<path d="M557.345 498.392L528.706 526.508L544.509 542H570.18L585.961 526.508L557.345 498.392Z" fill="#08749B"/>
<path d="M0 15.1083V15.8987L0.414058 15.4922L0 15.1083Z" fill="#08749B"/>
<path d="M32.9406 47.425L4.3016 19.3313L0 23.5544V71.3181L4.3016 75.5412L32.9406 47.425Z" fill="#08749B"/>
<path d="M36.8571 51.2684L8.22949 79.3735L36.8571 107.479L65.4848 79.3735L36.8571 51.2684Z" fill="#08749B"/>
<path d="M69.3767 83.2013L40.749 111.306L69.3767 139.412L98.0043 111.306L69.3767 83.2013Z" fill="#08749B"/>
<path d="M101.896 115.134L73.2686 143.239L101.896 171.344L130.524 143.239L101.896 115.134Z" fill="#08749B"/>
<path d="M134.416 147.067L105.788 175.172L134.416 203.277L163.043 175.172L134.416 147.067Z" fill="#08749B"/>
<path d="M166.975 179.038L138.347 207.143L166.975 235.249L195.602 207.143L166.975 179.038Z" fill="#08749B"/>
<path d="M199.51 210.955L170.883 239.06L199.51 267.165L228.138 239.06L199.51 210.955Z" fill="#08749B"/>
<path d="M232.03 242.888L203.402 270.993L232.03 299.098L260.658 270.993L232.03 242.888Z" fill="#08749B"/>
<path d="M264.55 274.821L235.922 302.926L264.55 331.031L293.177 302.926L264.55 274.821Z" fill="#08749B"/>
<path d="M297.069 306.776L268.441 334.881L297.069 362.986L325.697 334.881L297.069 306.776Z" fill="#08749B"/>
<path d="M329.628 338.725L301 366.83L329.628 394.935L358.256 366.83L329.628 338.725Z" fill="#08749B"/>
<path d="M362.164 370.642L333.536 398.747L362.164 426.852L390.791 398.747L362.164 370.642Z" fill="#08749B"/>
<path d="M394.684 402.575L366.056 430.68L394.684 458.785L423.311 430.68L394.684 402.575Z" fill="#08749B"/>
<path d="M427.203 434.508L398.576 462.613L427.203 490.718L455.831 462.613L427.203 434.508Z" fill="#08749B"/>
<path d="M459.746 466.463L431.118 494.568L459.746 522.673L488.373 494.568L459.746 466.463Z" fill="#08749B"/>
<path d="M492.291 498.392L463.652 526.508L479.433 542H505.127L520.907 526.508L492.291 498.392Z" fill="#08749B"/>
<path d="M0 78.9739V79.7643L0.414058 79.3804L0 78.9739Z" fill="#08749B"/>
<path d="M32.9406 111.313L4.3016 83.197L0 87.4427V135.184L4.3016 139.407L32.9406 111.313Z" fill="#08749B"/>
<path d="M36.8503 115.127L8.22266 143.232L36.8503 171.338L65.478 143.232L36.8503 115.127Z" fill="#08749B"/>
<path d="M69.3698 147.083L40.7422 175.188L69.3699 203.293L97.9975 175.188L69.3698 147.083Z" fill="#08749B"/>
<path d="M101.905 179.031L73.2778 207.137L101.905 235.242L130.533 207.137L101.905 179.031Z" fill="#08749B"/>
<path d="M134.425 210.964L105.797 239.069L134.425 267.175L163.053 239.069L134.425 210.964Z" fill="#08749B"/>
<path d="M166.968 242.897L138.34 271.002L166.968 299.107L195.596 271.002L166.968 242.897Z" fill="#08749B"/>
<path d="M199.504 274.814L170.876 302.919L199.504 331.024L228.131 302.919L199.504 274.814Z" fill="#08749B"/>
<path d="M232.023 306.769L203.396 334.875L232.023 362.98L260.651 334.875L232.023 306.769Z" fill="#08749B"/>
<path d="M264.559 338.718L235.932 366.823L264.559 394.928L293.187 366.823L264.559 338.718Z" fill="#08749B"/>
<path d="M297.079 370.651L268.451 398.756L297.079 426.861L325.706 398.756L297.079 370.651Z" fill="#08749B"/>
<path d="M329.621 402.584L300.994 430.689L329.621 458.794L358.249 430.689L329.621 402.584Z" fill="#08749B"/>
<path d="M362.157 434.501L333.529 462.606L362.157 490.711L390.785 462.606L362.157 434.501Z" fill="#08749B"/>
<path d="M394.676 466.456L366.049 494.561L394.676 522.666L423.304 494.561L394.676 466.456Z" fill="#08749B"/>
<path d="M427.215 498.392L398.599 526.508L414.379 542H440.051L455.854 526.508L427.215 498.392Z" fill="#08749B"/>
<path d="M0 142.862V143.653L0.414058 143.246L0 142.862Z" fill="#08749B"/>
<path d="M32.9406 175.179L4.3016 147.085L0 151.308V199.072L4.3016 203.295L32.9406 175.179Z" fill="#08749B"/>
<path d="M36.8596 179.025L8.23193 207.13L36.8596 235.235L65.4872 207.13L36.8596 179.025Z" fill="#08749B"/>
<path d="M69.3791 210.957L40.7515 239.063L69.3791 267.168L98.0068 239.063L69.3791 210.957Z" fill="#08749B"/>
<path d="M101.899 242.89L73.271 270.995L101.899 299.101L130.526 270.995L101.899 242.89Z" fill="#08749B"/>
<path d="M134.418 274.823L105.791 302.928L134.418 331.033L163.046 302.928L134.418 274.823Z" fill="#08749B"/>
<path d="M166.961 306.779L138.333 334.884L166.961 362.989L195.588 334.884L166.961 306.779Z" fill="#08749B"/>
<path d="M199.513 338.711L170.885 366.817L199.513 394.922L228.141 366.817L199.513 338.711Z" fill="#08749B"/>
<path d="M232.032 370.644L203.405 398.749L232.032 426.855L260.66 398.749L232.032 370.644Z" fill="#08749B"/>
<path d="M264.552 402.577L235.924 430.682L264.552 458.787L293.18 430.682L264.552 402.577Z" fill="#08749B"/>
<path d="M297.094 434.51L268.467 462.615L297.094 490.72L325.722 462.615L297.094 434.51Z" fill="#08749B"/>
<path d="M329.614 466.465L300.987 494.57L329.614 522.676L358.242 494.57L329.614 466.465Z" fill="#08749B"/>
<path d="M362.162 498.392L333.523 526.508L349.304 542H374.998L390.778 526.508L362.162 498.392Z" fill="#08749B"/>
<path d="M0 206.728V207.518L0.414058 207.134L0 206.728Z" fill="#08749B"/>
<path d="M32.9406 239.067L4.3016 210.951L0 215.197V262.938L4.3016 267.161L32.9406 239.067Z" fill="#08749B"/>
<path d="M36.8528 242.884L8.2251 270.989L36.8528 299.094L65.4804 270.989L36.8528 242.884Z" fill="#08749B"/>
<path d="M69.3723 274.816L40.7446 302.922L69.3723 331.027L98 302.922L69.3723 274.816Z" fill="#08749B"/>
<path d="M101.892 306.772L73.2642 334.877L101.892 362.982L130.519 334.877L101.892 306.772Z" fill="#08749B"/>
<path d="M134.427 338.721L105.8 366.826L134.427 394.931L163.055 366.826L134.427 338.721Z" fill="#08749B"/>
<path d="M166.97 370.653L138.343 398.759L166.97 426.864L195.598 398.759L166.97 370.653Z" fill="#08749B"/>
<path d="M199.506 402.57L170.878 430.675L199.506 458.781L228.134 430.675L199.506 402.57Z" fill="#08749B"/>
<path d="M232.026 434.503L203.398 462.608L232.026 490.713L260.653 462.608L232.026 434.503Z" fill="#08749B"/>
<path d="M264.545 466.458L235.917 494.564L264.545 522.669L293.173 494.564L264.545 466.458Z" fill="#08749B"/>
<path d="M297.086 498.392L268.47 526.508L284.25 542H309.922L325.725 526.508L297.086 498.392Z" fill="#08749B"/>
<path d="M0 270.594V271.407L0.414058 271L0 270.594Z" fill="#08749B"/>
<path d="M32.9406 302.933L4.3016 274.839L0 279.062V326.803L4.3016 331.049L32.9406 302.933Z" fill="#08749B"/>
<path d="M36.8459 306.765L8.21826 334.87L36.8459 362.975L65.4736 334.87L36.8459 306.765Z" fill="#08749B"/>
<path d="M69.3816 338.714L40.7539 366.819L69.3815 394.924L98.0092 366.819L69.3816 338.714Z" fill="#08749B"/>
<path d="M101.901 370.647L73.2734 398.752L101.901 426.857L130.529 398.752L101.901 370.647Z" fill="#08749B"/>
<path d="M134.421 402.579L105.793 430.685L134.421 458.79L163.048 430.685L134.421 402.579Z" fill="#08749B"/>
<path d="M166.963 434.512L138.335 462.617L166.963 490.723L195.591 462.617L166.963 434.512Z" fill="#08749B"/>
<path d="M199.499 466.452L170.872 494.557L199.499 522.662L228.127 494.557L199.499 466.452Z" fill="#08749B"/>
<path d="M232.033 498.392L203.394 526.508L219.197 542H244.869L260.649 526.508L232.033 498.392Z" fill="#08749B"/>
<path d="M0 334.482V335.272L0.414058 334.866L0 334.482Z" fill="#08749B"/>
<path d="M32.9406 366.821L4.3016 338.705L0 342.928V390.692L4.3016 394.915L32.9406 366.821Z" fill="#08749B"/>
<path d="M36.8552 370.64L8.22754 398.745L36.8552 426.85L65.4828 398.745L36.8552 370.64Z" fill="#08749B"/>
<path d="M69.3747 402.573L40.7471 430.678L69.3747 458.783L98.0024 430.678L69.3747 402.573Z" fill="#08749B"/>
<path d="M101.894 434.505L73.2666 462.611L101.894 490.716L130.522 462.611L101.894 434.505Z" fill="#08749B"/>
<path d="M134.414 466.461L105.786 494.566L134.414 522.671L163.041 494.566L134.414 466.461Z" fill="#08749B"/>
<path d="M166.957 498.392L138.341 526.508L154.122 542H179.816L195.596 526.508L166.957 498.392Z" fill="#08749B"/>
<path d="M0 398.347V399.138L0.414058 398.754L0 398.347Z" fill="#08749B"/>
<path d="M32.9406 430.687L4.3016 402.593L0 406.816V454.557L4.3016 458.803L32.9406 430.687Z" fill="#08749B"/>
<path d="M36.8479 434.499L8.22021 462.604L36.8479 490.709L65.4755 462.604L36.8479 434.499Z" fill="#08749B"/>
<path d="M69.3674 466.454L40.7397 494.559L69.3674 522.664L97.995 494.559L69.3674 466.454Z" fill="#08749B"/>
<path d="M101.904 498.392L73.2651 526.508L89.0683 542H114.74L130.52 526.508L101.904 498.392Z" fill="#08749B"/>
<path d="M0 462.236V463.026L0.414058 462.62L0 462.236Z" fill="#08749B"/>
<path d="M32.9406 494.552L4.3016 466.459L0 470.682V518.446L4.3016 522.669L32.9406 494.552Z" fill="#08749B"/>
<path d="M36.8509 498.392L8.21191 526.508L23.9921 542H49.6867L65.4669 526.508L36.8509 498.392Z" fill="#08749B"/>
</g>
<defs>
<clipPath id="clip0_271_3999">
<rect width="1440" height="542" fill="white"/>
</clipPath>
</defs>
</svg>
