<svg width="24" height="24" viewBox="0 0 24 24" fill="none" xmlns="http://www.w3.org/2000/svg">
<path d="M4.616 18.5215C4.15533 18.5215 3.771 18.3675 3.463 18.0595C3.155 17.7515 3.00067 17.3668 3 16.9055V6.13748C3 5.67682 3.15433 5.29248 3.463 4.98448C3.77167 4.67648 4.15567 4.52215 4.615 4.52148H19.385C19.845 4.52148 20.229 4.67582 20.537 4.98448C20.845 5.29315 20.9993 5.67748 21 6.13748V16.9065C21 17.3665 20.8457 17.7508 20.537 18.0595C20.2283 18.3682 19.8443 18.5222 19.385 18.5215H4.616ZM12 11.6375L20 6.40648L19.692 5.52148L12 10.5215L4.308 5.52148L4 6.40648L12 11.6375Z" fill="black"/>
</svg>
