<svg width="24" height="25" viewBox="0 0 24 25" fill="none" xmlns="http://www.w3.org/2000/svg">
<path d="M19 10.8232C19 9.90399 18.8189 8.99374 18.4672 8.14446C18.1154 7.29518 17.5998 6.5235 16.9497 5.87349C16.2997 5.22348 15.5281 4.70787 14.6788 4.35609C13.8295 4.0043 12.9193 3.82324 12 3.82324C11.0807 3.82324 10.1705 4.0043 9.32122 4.35609C8.47194 4.70787 7.70026 5.22348 7.05025 5.87349C6.40024 6.5235 5.88463 7.29518 5.53284 8.14446C5.18106 8.99374 5 9.90399 5 10.8232C5 12.2102 5.409 13.5002 6.105 14.5882H6.097L12 23.8232L17.903 14.5882H17.896C18.6169 13.4648 19.0001 12.1581 19 10.8232ZM12 13.8232C11.2044 13.8232 10.4413 13.5072 9.87868 12.9446C9.31607 12.382 9 11.6189 9 10.8232C9 10.0276 9.31607 9.26453 9.87868 8.70192C10.4413 8.13931 11.2044 7.82324 12 7.82324C12.7956 7.82324 13.5587 8.13931 14.1213 8.70192C14.6839 9.26453 15 10.0276 15 10.8232C15 11.6189 14.6839 12.382 14.1213 12.9446C13.5587 13.5072 12.7956 13.8232 12 13.8232Z" fill="black"/>
</svg>
