<svg width="16" height="17" viewBox="0 0 16 17" fill="none" xmlns="http://www.w3.org/2000/svg">
<path d="M14.93 16.7754C13.2447 16.7754 11.5167 16.3534 9.746 15.5094C7.97533 14.6654 6.32733 13.4804 4.802 11.9544C3.28867 10.4291 2.11 8.78406 1.266 7.01939C0.422 5.25472 0 3.53006 0 1.84539C0 1.54539 0.1 1.29206 0.3 1.08539C0.5 0.878724 0.75 0.775391 1.05 0.775391H3.523C3.795 0.775391 4.03233 0.861057 4.235 1.03239C4.43767 1.20372 4.57467 1.42339 4.646 1.69139L5.142 4.07539C5.18867 4.35539 5.18033 4.59972 5.117 4.80839C5.05367 5.01706 4.94267 5.18806 4.784 5.32139L2.59 7.36739C3.00067 8.11206 3.45433 8.80406 3.951 9.44339C4.44767 10.0827 4.97767 10.6884 5.541 11.2604C6.121 11.8404 6.74567 12.3804 7.415 12.8804C8.08433 13.3797 8.819 13.8511 9.619 14.2944L11.758 12.1174C11.9207 11.9421 12.1037 11.8264 12.307 11.7704C12.5097 11.7151 12.7343 11.7041 12.981 11.7374L15.084 12.1674C15.356 12.2341 15.5767 12.3711 15.746 12.5784C15.9153 12.7857 16 13.0231 16 13.2904V15.7254C16 16.0254 15.8967 16.2754 15.69 16.4754C15.4833 16.6754 15.23 16.7754 14.93 16.7754Z" fill="black"/>
</svg>
